<svg xmlns="http://www.w3.org/2000/svg" width="255" height="510" fill="none" viewBox="0 0 255 510"><path fill="#F8F8F8" d="M0 12C0 5.373 5.373 0 12 0h231c6.627 0 12 5.373 12 12v486c0 6.627-5.373 12-12 12H12c-6.627 0-12-5.373-12-12V12Z"/><path fill="#fff" d="M45.053 370.704c0 14.021 3.502 27.233 9.68 38.794a82.735 82.735 0 0 0 28.018 30.485c.17.117.342.233.521.334 12.791 8.162 27.987 12.893 44.287 12.893 16.122 0 31.161-4.622 43.867-12.628.078-.039.163-.093.242-.148.108-.063.21-.125.311-.195a81.264 81.264 0 0 0 6.403-4.543c.226-.172.459-.358.685-.545a82.184 82.184 0 0 0 13.429-13.546 82.449 82.449 0 0 0 7.431-11.251c.101-.171.194-.35.288-.529a82.002 82.002 0 0 0 5.469-12.519 80.856 80.856 0 0 0 1.821-6.146 76.778 76.778 0 0 0 1.182-5.384 81.55 81.55 0 0 0 1.113-8.458 80.86 80.86 0 0 0 .264-6.614c0-27.838-13.779-52.456-34.895-67.387a79.254 79.254 0 0 0-4.63-3.058 1.383 1.383 0 0 0-.225-.14 81.137 81.137 0 0 0-5.789-3.198c-.163-.085-.327-.171-.498-.248a77.518 77.518 0 0 0-5.882-2.622h-.007a74.346 74.346 0 0 0-4.887-1.774 80.57 80.57 0 0 0-15.623-3.47c-.451-.063-.902-.109-1.354-.156a74.849 74.849 0 0 0-5.641-.397 66.794 66.794 0 0 0-3.073-.062c-.475 0-.942.007-1.416.015h-.312a83.545 83.545 0 0 0-8.527.615 77.356 77.356 0 0 0-4.676.723c-38.437 7.018-67.576 40.685-67.576 81.159Z"/><path fill="#F75D34" d="M187.024 313.195c0-10.554 8.555-19.109 19.109-19.109 10.554 0 19.109 8.555 19.109 19.109 0 9.926-7.568 18.082-17.249 19.018l3.063 9.013-7.722-9.128c-9.226-1.354-16.31-9.3-16.31-18.903Z"/><path fill="#fff" fill-rule="evenodd" d="M209.626 305.001c1.051.089.365 4.533.365 4.533s2.512-.044 3.334-.088c.822-.044 2.328.044 2.465.88.138.836-.365 2.2-.365 2.2s.365.66.548 1.408c.183.748-.593 2.024-.593 2.024s.228.924-.092 1.98c-.265.877-7.614.784-10.1.726V319h-5.858l-.329-9.192 5.533-.627.05.413 1.663-.192s2.329-4.488 3.379-4.401Zm-5.654 4.843.392 8.561h-4.437l-.289-8.07 4.334-.491Z" clip-rule="evenodd"/><path fill="#fff" stroke="#24272C" d="m183.739 367.096-14.258 20.59-4.264 31.98.076.265c.069.238.172.588.31 1.035.277.894.691 2.174 1.243 3.717 1.103 3.087 2.751 7.217 4.935 11.4 2.186 4.185 4.897 8.403 8.117 11.679 3.221 3.276 6.919 5.577 11.083 6.008 2.072.214 3.801-.135 5.252-.892 1.454-.759 2.658-1.944 3.651-3.441 1.995-3.006 3.106-7.218 3.686-11.55.579-4.321.623-8.705.521-12.015a88.768 88.768 0 0 0-.213-4.003 57.43 57.43 0 0 0-.125-1.418l-.002-.017-.039-.084-.215-.464c-.186-.405-.456-.996-.791-1.743a242.788 242.788 0 0 1-2.628-6.096c-2.064-4.974-4.556-11.451-6.252-17.438-1.682-5.936-4.29-13.019-6.482-18.627a385.81 385.81 0 0 0-3.605-8.886Z"/><path fill="#24272C" stroke="#24272C" d="m185.096 404.318.088.03h.001l.184.061.002.001 16.852 5.552 15.49-27.195c.888-1.568-.04-3.554-1.823-3.867l-13.569-2.398-.141.02-.194.028-.158-.109a2.641 2.641 0 0 0-2.389 1.372l-14.343 26.505Zm0 0 14.343-26.505-14.343 26.505Z"/><path fill="#fff" d="m185.026 404.822.187.063c4.163-7.905 8.465-16.059 12.884-24.026.615-1.105 1.307-2.358 2.241-3.362.607-.661 1.284-1.166 1.992-1.501l-.054-.008c-.094-.015-.187-.031-.28-.038a6.764 6.764 0 0 0-1.806 1.415c-.941 1.02-1.641 2.288-2.256 3.401-4.419 7.989-8.738 16.143-12.908 24.056ZM201.863 379.247c.226-.147.483-.202.747-.155l3.968.739a.988.988 0 0 1 .794 1.151.987.987 0 0 1-.972.81c-.063 0-.125 0-.187-.016l-3.968-.739a1.003 1.003 0 0 1-.638-.412.994.994 0 0 1-.156-.739.966.966 0 0 1 .412-.639Z"/><path fill="#fff" stroke="#24272C" d="M151.002 333.288c-.498-.242-.529-1.129-.529-1.129l33.371 33.908c-8.512-21.054-28.679-30.78-32.842-32.779Zm20.805 90.904 11.517-58.076c-8.466-20.767-28.39-30.385-32.538-32.378l-.002-.001c-.455-.22-.638-.692-.715-.97a2.585 2.585 0 0 1-.04-.164l-15.427-2.142-20.273-2.812-.203.101c-.223.112-.554.28-.981.503-.856.446-2.098 1.114-3.643 1.996a147.426 147.426 0 0 0-12.214 7.819c-9.657 6.867-21.406 16.954-29.835 29.86-6.634 10.157-10.256 25.973-12.205 41.475a82.231 82.231 0 0 0 27.774 30.16l.01.007c.174.118.328.223.486.312l.011.006.012.008c12.713 8.112 27.816 12.814 44.018 12.814 16.024 0 30.972-4.594 43.6-12.551l.013-.008.058-3.119.194-10.854.001-.044.008-.043.374-1.899ZM193.994 406.792l-.209.454-.002-.001-.006-.003-.024-.011-.097-.044-.371-.167a113.297 113.297 0 0 0-5.434-2.258c-1.514-.576-3.037-1.097-4.228-1.383-.599-.144-1.087-.221-1.436-.225a1.22 1.22 0 0 0-.354.036.923.923 0 0 0 .098.272c.13.262.373.599.719.995.688.786 1.698 1.713 2.755 2.609a75.908 75.908 0 0 0 2.955 2.366c.41.312.753.569.994.747l.28.206.074.053.018.014.005.003.001.001-.293.405.293-.405.246.177-.044.3v.004l-.002.014-.008.06a21.742 21.742 0 0 0-.107 1.105 22.548 22.548 0 0 0-.027 2.815c.06 1.08.217 2.22.544 3.236.328 1.019.814 1.875 1.507 2.438 1.44 1.17 3.963 1.599 6.449 1.404 1.228-.096 2.412-.343 3.4-.704.913-.333 1.619-.749 2.051-1.2v-.004a62.744 62.744 0 0 1 .086-2.463c.088-1.575.263-3.657.615-5.671.362-2.066 1.386-4.333 2.346-6.178.483-.928.956-1.761 1.33-2.419.386-.68.64-1.128.723-1.335v-.001c.078-.194.248-.439.427-.68a35.672 35.672 0 0 1 .818-1.043c.536-.672 1.176-1.472 1.78-2.317.644-.902 1.232-1.834 1.604-2.691.38-.877.49-1.575.327-2.063-.416-1.247-1.805-3.398-3.339-5.128-.763-.86-1.534-1.585-2.204-2.031-.336-.223-.624-.36-.855-.42-.228-.058-.358-.031-.433.011-.04.022-.12.093-.167.344-.045.25-.04.601.022 1.043.123.88.451 1.991.845 3.099.392 1.102.84 2.177 1.191 2.978.175.4.326.73.432.96l.125.266.033.069.008.018.002.004.001.001.137.284-.198.247-2.45 3.046-.253.314-.361-.181-.002-.001-.008-.004-.034-.017-.132-.064a48.581 48.581 0 0 0-2.183-.989c-1.357-.573-3.012-1.192-4.295-1.43m-5.685 11.133.213-.452v-.001h-.002l-.007-.004-.031-.015-.12-.057a115.31 115.31 0 0 1-2.075-1.022 114.682 114.682 0 0 1-4.839-2.573c-1.737-.985-3.42-2.023-4.595-2.936-.591-.46-1.026-.866-1.277-1.2a1.22 1.22 0 0 1-.21-.373.217.217 0 0 1-.01-.069v-.002a.407.407 0 0 1 .116-.053c.13-.043.332-.074.615-.08.565-.011 1.345.079 2.287.251 1.876.344 4.291.999 6.689 1.724a182.83 182.83 0 0 1 6.52 2.122 198.137 198.137 0 0 1 2.717.959l.156.056.039.015.01.003.003.001v.001l.173-.47-.173.47.37.135.219-.327.596-.894.342-.514-.573-.228-.185.464.185-.464h-.001l-.002-.001-.007-.003-.031-.013-.122-.049-.464-.188c-.4-.163-.972-.399-1.656-.688a144.871 144.871 0 0 1-5.003-2.213c-1.815-.848-3.604-1.748-4.917-2.548-.659-.402-1.176-.766-1.514-1.075a1.962 1.962 0 0 1-.334-.371.535.535 0 0 1-.034-.065l.004-.004a.579.579 0 0 1 .201-.104c.238-.083.609-.134 1.113-.141.997-.015 2.352.14 3.811.375 1.946.314 3.984.751 5.546 1.086.797.171 1.469.315 1.942.402m-5.685 11.133-.209.454.422-.906-.213.452Zm5.685-11.133.091-.491m-.091.491.091-.491m0 0c-.447-.083-1.104-.224-1.89-.392-3.927-.842-11.072-2.373-11.321-.8m13.211 1.192-12.717-1.114m-.494-.078.494.078s0-.001 0 0m-.494-.078.494.078m-.494-.078c-.265 1.684 11.413 6.532 13.929 7.556l-13.435-7.478m-5.26 9.152h.002-.002Z"/><path fill="#24272C" d="M151.201 254.853c6.328-1.518 12.336-3.621 19.582-.338 5.407 2.45 8.175 7.262 8.339 13.128 4.784-.407 9.555 2.902 11.83 7.132 2.274 4.23 1.678 9.859-1.519 13.442-2.641 2.96-6.682 4.372-10.642 4.612-3.96.241-7.901-.568-11.775-1.421-1.112-.245-1.954-1.334-2.71-2.186a88.398 88.398 0 0 1-11.407-16.188c-1.471-2.686-2.815-5.481-3.465-8.474-.649-2.994.46-6.938 1.767-9.707Z"/><path fill="#24272C" d="M154.31 257.507c-2.968-4.118-8.261-6.43-13.298-5.81-5.037.62-9.612 4.146-11.493 8.86-4.607-1.398-9.988 1.197-12.362 5.385-2.375 4.188-2.092 9.556.024 13.881-3.076 2.812-4.667 6.944-4.591 11.11.154 8.543 5.689 16.755 13.55 20.102 7.356-18.15 17.203-37.304 28.17-53.528Z"/><path fill="#fff" stroke="#24272C" d="m137.001 341.34.016-.003.016-.002.003-.001.015-.002.018-.002.045-.007.254-.042c.222-.04.548-.104.957-.2a23.741 23.741 0 0 0 3.25-1.026c2.59-1.027 5.758-2.812 8.147-5.847l.003-.004c.288-.36.561-.733.82-1.131l.851-2.705v-.001l2.196-7.016-27.817-20.09-10.991 23.9.003.008c.044.127.113.314.206.552.187.476.473 1.156.87 1.963.794 1.615 2.026 3.729 3.778 5.735 3.494 4.001 9.038 7.566 17.36 5.921Z"/><path fill="#24272C" d="M131.69 325.709c2.474 4.754 6.933 8.598 12.185 9.687 1.276.265 2.606.366 3.882.101a6.89 6.89 0 0 0 2.358-.98c.311-.389.606-.794.886-1.229l.872-2.771c-6.769-7.562-13.709-15.747-22.642-20.463-.637 5.323-.015 10.894 2.459 15.655Z"/><path fill="#fff" stroke="#24272C" d="M126.348 290.909c-.399 4.119-.716 9.874-.579 17.322.159 8.415 4.658 14.793 10.927 18.566 6.28 3.78 14.319 4.932 21.49 2.877a10.44 10.44 0 0 0 2.21-.934c3.109-1.736 5.503-4.617 7.423-7.912s3.345-6.964 4.538-10.239c1.352-3.708 2.38-7.495 3.395-11.328l.394-1.472c1.246-4.63 2.452-9.108 1.913-13.867-.521-4.6-2.325-9.01-5.147-12.679l.397-.305-.397.305a25.552 25.552 0 0 0-13.532-9.085c-13.633-3.753-27.707 4.195-31.438 17.749a26.03 26.03 0 0 0-.874 5.399l-.001.026-.004.025a84.18 84.18 0 0 0-.715 5.552Z"/><path fill="#24272C" stroke="#24272C" d="M164.173 296.248h-.001.001Z"/><mask id="path-17-inside-1_269_948" fill="#fff"><path d="M155.116 315.838c1.001 0 1.825-.844 2.133-1.16a.274.274 0 1 0-.392-.383c-.864.885-1.571 1.169-2.223.897-.861-.362-.943-1.423-.953-2.48-.002-.15-.131-.262-.277-.27a.274.274 0 0 0-.271.277c.009.915.025 2.446 1.289 2.977.238.1.47.142.694.142Z"/></mask><path fill="#24272C" d="M155.116 315.838c1.001 0 1.825-.844 2.133-1.16a.274.274 0 1 0-.392-.383c-.864.885-1.571 1.169-2.223.897-.861-.362-.943-1.423-.953-2.48-.002-.15-.131-.262-.277-.27a.274.274 0 0 0-.271.277c.009.915.025 2.446 1.289 2.977.238.1.47.142.694.142Z"/><path fill="#24272C" d="m157.249 314.678.719.696-.003.003-.716-.699Zm-.005-.388.698-.716.001.001-.699.715Zm-.387.005-.715-.698.002-.003.713.701Zm-2.223.897-.385.923-.002-.001.387-.922Zm-.953-2.48 1-.011v.002l-1 .009Zm-.277-.27-.011-1h.034l.035.002-.058.998Zm-.271.277 1-.012v.001l-1 .011Zm1.289 2.977-.386.923-.002-.001.388-.922Zm.694-.858c.222 0 .481-.096.765-.289.279-.189.501-.413.653-.57l1.431 1.398c-.156.16-.501.515-.962.828-.455.308-1.108.633-1.887.633v-2Zm1.415-.856a.726.726 0 0 0 .015 1.024l1.397-1.431c.504.492.512 1.296.025 1.799l-1.437-1.392Zm.016 1.025a.725.725 0 0 0 1.023-.01l-1.426-1.403a1.275 1.275 0 0 1 1.798-.02l-1.395 1.433Zm1.026-.013c-.92.942-2.061 1.647-3.324 1.121l.77-1.846c.059.025.126.04.274-.019.184-.074.463-.258.849-.653l1.431 1.397Zm-3.326 1.12c-.798-.335-1.186-.997-1.368-1.621-.173-.59-.193-1.246-.198-1.771l2-.019c.005.531.031.934.117 1.229.077.261.16.311.223.338l-.774 1.844Zm-1.566-3.391a.715.715 0 0 0 .665.717l.116-1.996c.568.032 1.21.485 1.219 1.257l-2 .022Zm.734.719a.728.728 0 0 0 .718-.735l-2 .023a1.274 1.274 0 0 1 1.26-1.288l.022 2Zm.718-.734c.005.477.015.954.134 1.366.11.38.277.589.542.7l-.775 1.844c-.999-.419-1.472-1.242-1.688-1.989-.207-.715-.209-1.462-.213-1.9l2-.021Zm.675 2.066a.79.79 0 0 0 .308.064v2a2.79 2.79 0 0 1-1.08-.219l.772-1.845Z" mask="url(#path-17-inside-1_269_948)"/><path fill="#fff" stroke="#24272C" d="M169.14 303.249c.561.159 1.283-.23 1.517-1.057.234-.827-.178-1.536-.739-1.694-.561-.158-1.283.23-1.517 1.057-.234.827.179 1.536.739 1.694ZM152.708 295.695c-.234.827.178 1.536.739 1.694.561.158 1.283-.23 1.517-1.057.233-.827-.179-1.536-.74-1.694-.561-.159-1.283.23-1.516 1.057Z"/><path fill="#fff" d="M125.367 283.535c-2.099-.421-4.346.371-5.898 1.846-1.552 1.475-2.441 3.563-2.692 5.689-.57 4.813 2.286 9.835 6.713 11.807 1.116.497 2.362.817 3.561.584 1.609-.311 2.906-1.591 3.599-3.075.693-1.484.863-3.157.899-4.795.103-4.654-.484-10.911-6.182-12.056Z"/><path fill="#24272C" stroke="#24272C" d="M126.187 295.923Zm0 0v.001-.001Zm-.4.097Z"/><path fill="#24272C" d="M158.614 260.066c-2.142-2.543-5.013-4.385-8.03-5.783-3.642-1.689-9.057.173-12.415 2.373-3.358 2.201-6.116 5.204-8.586 8.368-3.067 3.927-5.822 8.347-6.402 13.295-.581 4.949 1.546 10.496 6.059 12.608.882.413 1.838.688 2.813.718 2.354.073 4.605-1.337 5.908-3.301 1.302-1.963 1.821-4.305 1.71-6.659.965 1.469 2.135 2.843 3.636 3.757 1.501.915 3.371 1.325 5.051.812 1.35-.413 2.432-1.375 3.193-2.576l.008.068c.236 1.741 1.095 3.452 2.552 4.434 2.009 1.352 4.776 1.074 6.916-.06 2.14-1.135 3.862-2.898 5.465-4.714.103 2.609 1.799 5.283 4.353 5.823 1.729.367 3.541-.275 4.993-1.283 2.733-1.894 4.446-5.034 5.072-8.3.625-3.265.247-6.655-.567-9.879-.983-3.892-5.84-6.925-9.665-8.146-3.825-1.222-7.894-1.472-11.908-1.397l-.025.001c-.043-.054-.087-.106-.131-.159Z"/><path fill="#fff" stroke="#F75D34" d="M212.075 367.608h.561l-.064.557-.577 5.028 3.97-5.382.15-.203h19.827a2.675 2.675 0 0 0 2.675-2.675v-12.891a2.675 2.675 0 0 0-2.675-2.675H202.84a2.675 2.675 0 0 0-2.675 2.675v12.891a2.675 2.675 0 0 0 2.675 2.675h9.235Z"/><path fill="#F8F8F8" d="M233.117 353a1 1 0 0 1 0 2h-28a1 1 0 0 1 0-2h28ZM222.117 359a1 1 0 0 1 0 2h-17a1 1 0 0 1 0-2h17Z"/><path stroke="#24272C" stroke-linecap="round" d="m83.5 439.5 3.5-59"/></svg>